<svg width="22" height="21" viewBox="0 0 22 21" fill="none" xmlns="http://www.w3.org/2000/svg">
<g clip-path="url(#clip0_15_2)">
<path d="M9.71548 8.10698H6.28079C4.83871 8.1093 3.4563 8.74715 2.43659 9.88068C1.41688 11.0142 0.843095 12.5509 0.841003 14.154V21H3.47699V14.154C3.47768 13.3276 3.77331 12.5353 4.29897 11.951C4.82464 11.3666 5.53739 11.038 6.28079 11.0372H9.71548V8.10698Z" fill="#06EAD4"/>
<path d="M16.4012 8.10698H12.9665V0H10.4184V21H12.9665V11.0372H16.4012C17.1446 11.038 17.8574 11.3666 18.383 11.951C18.9087 12.5353 19.2043 13.3276 19.205 14.154V21H21.841V14.154C21.8389 12.5509 21.2651 11.0142 20.2454 9.88068C19.2257 8.74714 17.8433 8.1093 16.4012 8.10698V8.10698Z" fill="#06EAD4"/>
</g>
<defs>
<clipPath id="clip0_15_2">
<rect width="21" height="21" fill="white" transform="translate(0.841003)"/>
</clipPath>
</defs>
</svg>
